<?xml version="1.0" encoding="UTF-8"?>
<svg id="katman_1" data-name="katman 1" xmlns="http://www.w3.org/2000/svg" viewBox="0 0 558.12 455.77">
  <defs>
    <style>
      .cls-1 {
        stroke-linecap: square;
        stroke-linejoin: bevel;
      }

      .cls-1, .cls-2, .cls-3, .cls-4, .cls-5, .cls-6, .cls-7, .cls-8, .cls-9, .cls-10, .cls-11, .cls-12, .cls-13, .cls-14, .cls-15, .cls-16, .cls-17, .cls-18, .cls-19, .cls-20, .cls-21, .cls-22 {
        stroke: #000;
      }

      .cls-1, .cls-2, .cls-6, .cls-19, .cls-22 {
        stroke-width: 3px;
      }

      .cls-1, .cls-6, .cls-23, .cls-24, .cls-12, .cls-16, .cls-19, .cls-20, .cls-21 {
        fill: none;
      }

      .cls-2, .cls-3, .cls-4, .cls-5, .cls-25, .cls-10, .cls-23, .cls-24, .cls-12, .cls-16, .cls-18, .cls-19, .cls-21, .cls-22 {
        stroke-miterlimit: 10;
      }

      .cls-2, .cls-4, .cls-26 {
        fill: #f0e8dc;
      }

      .cls-3 {
        fill: #2d2d2d;
      }

      .cls-3, .cls-4, .cls-5, .cls-7, .cls-27, .cls-28, .cls-25, .cls-8, .cls-29, .cls-23, .cls-12, .cls-13, .cls-14, .cls-15, .cls-17, .cls-20 {
        stroke-width: 2px;
      }

      .cls-5 {
        fill: #1c1c1c;
      }

      .cls-6, .cls-7, .cls-27, .cls-28, .cls-8, .cls-29, .cls-9, .cls-11, .cls-30, .cls-31, .cls-13, .cls-14, .cls-15, .cls-17, .cls-20 {
        stroke-linejoin: round;
      }

      .cls-7, .cls-11 {
        fill: #604d34;
      }

      .cls-32 {
        fill: #ddcbc0;
      }

      .cls-27 {
        opacity: .5;
      }

      .cls-27, .cls-28, .cls-29 {
        fill: #f9f9f9;
        stroke: #eaeaea;
      }

      .cls-27, .cls-28, .cls-29, .cls-24, .cls-30, .cls-31, .cls-13, .cls-14 {
        stroke-linecap: round;
      }

      .cls-28 {
        opacity: .7;
      }

      .cls-25 {
        fill: #a99783;
      }

      .cls-25, .cls-23, .cls-30 {
        stroke: #0f0f0f;
      }

      .cls-9, .cls-17 {
        fill: #80a2aa;
      }

      .cls-10 {
        fill: #161616;
      }

      .cls-24 {
        stroke: #a99783;
      }

      .cls-33 {
        fill: #282828;
      }

      .cls-30, .cls-18 {
        fill: #875b37;
      }

      .cls-31 {
        stroke: #161616;
      }

      .cls-31, .cls-14 {
        fill: #424242;
      }

      .cls-31, .cls-16 {
        stroke-width: 4px;
      }

      .cls-13 {
        fill: #0f0f0f;
      }

      .cls-15 {
        fill: #88a3aa;
      }

      .cls-21 {
        stroke-width: 5px;
      }

      .cls-34 {
        fill: #a0c3cd;
      }

      .cls-22 {
        fill: #6e6e6e;
      }
    </style>
  </defs>
  <path class="cls-13" d="M81.48,321.35c-26.6-.22-33.72,2.64-38.96,7.02-2.89,2.42-6.4,5.36-6.15,9,.65,9.23,24.91,14.96,41.27,16.02,12.09.78,30.47,1.98,36.44-8.67,2.96-5.28,2.55-12.92-1.1-17.78-1.94-2.58-5.54-5.39-31.5-5.6Z"/>
  <path class="cls-6" d="M399.7,176.62v36"/>
  <path class="cls-22" d="M136.71,252.02c.05-1.73-5.02-3.25-5.41-3.37-1.92-.57-3.87-.46-7.68-.22-6.07.39-7.06,1.13-7.54,1.57-1.36,1.25-2.53,3.68-1.76,5.16,2.32,4.47,22.29.26,22.39-3.15Z"/>
  <path class="cls-14" d="M41.75,332.95c3.19-2.22,6.1-3.01,10.94-4.13,9.95-2.31,14.92-3.47,20.27-4.11,7.27-.87,17.24-1.54,29.27-.75-.37-3.73-.74-7.47-1.11-11.2-61.3-1.37-75.9,4.36-77.04,10.21-.99,5.07,7.28,14.69,12.4,13.83,1.8-.3,2.24-1.73,5.27-3.84Z"/>
  <g>
    <path class="cls-26" d="M204.63,140.24c17.23-7.68,34.9-14.93,52.55-21.56,13.58-5.1,27.45-9.94,41.24-14.41,11.5-.71,23.17-1.07,34.68-1.07,8.92,0,17.96.22,26.87.64,13.9.66,27.94,1.86,41.76,3.55l-4.42,106.35c-6.57-.34-13.23-.51-19.82-.51-7.94,0-15.99.25-23.92.74-21.34,1.32-37.52,4.12-49.33,6.17-11.91,2.06-18.82,3.64-29.29,6.03-5.57,1.27-11.88,2.71-20.5,4.59-17.27,3.76-35.07,7.36-52.96,10.7l3.12-101.22Z"/>
    <path d="M333.11,104.71c8.9,0,17.91.21,26.8.64,13.4.64,26.93,1.77,40.27,3.38l-2.91,70.06-1.39,33.39c-6.1-.29-12.27-.44-18.38-.44-7.97,0-16.05.25-24.01.74-21.43,1.33-37.65,4.14-49.5,6.18-11.95,2.07-18.88,3.65-29.37,6.05-5.56,1.27-11.87,2.71-20.49,4.59-16.67,3.63-33.83,7.11-51.08,10.34l3.04-98.42c16.93-7.53,34.28-14.64,51.61-21.14,13.49-5.07,27.28-9.88,41-14.33,11.41-.7,22.98-1.05,34.4-1.05M333.11,101.71c-12.27,0-23.94.4-34.96,1.08-13.42,4.34-27.27,9.15-41.49,14.49-18.93,7.11-36.77,14.5-53.5,21.98-1.07,34.67-2.14,69.35-3.21,104.02,23.34-4.33,42.15-8.28,54.83-11.04,25.29-5.51,31.7-7.5,49.73-10.61,12.54-2.17,28.33-4.85,49.17-6.15,8.61-.53,16.59-.74,23.82-.74,8.09,0,15.24.26,21.25.59,1.51-36.41,3.02-72.83,4.54-109.24-13.49-1.69-27.93-3-43.24-3.73-9.26-.44-18.25-.64-26.94-.64h0Z"/>
  </g>
  <path class="cls-32" d="M205.93,145.53c31.56-11.86,63.12-23.73,94.68-35.59l100.48,5.43c-.31-2.92-.62-5.84-.93-8.76-33.52-.94-67.04-1.88-100.55-2.82-11.07,3.61-22.46,7.59-34.11,11.98-21.34,8.05-41.16,16.6-59.45,25.28-.04,1.49-.07,2.98-.11,4.48Z"/>
  <g>
    <path class="cls-34" d="M194.75,143.37c-.2,0-.4-.06-.57-.18-.27-.19-.43-.49-.43-.82v-11.85c0-.37.21-.71.54-.89,14.25-7.46,28.89-14.63,43.51-21.32,18.62-8.51,37.77-16.5,56.92-23.73.08-.03.16-.05.24-.06,13.43-1.6,27.08-2.41,40.59-2.41,8.09,0,16.29.29,24.36.87,17.37,1.24,34.8,3.83,51.81,7.71.22.05.42.18.56.36,1.33,1.69,2.52,3.52,3.53,5.41,1.66,3.11,2.88,6.45,3.61,9.92.08.4-.08.8-.41,1.03-2.63,1.8-5.4,3.44-8.23,4.89-3.01,1.54-6.15,2.89-9.34,4-.11.04-.22.06-.33.06-.21,0-.42-.07-.6-.2-.27-.2-.42-.52-.4-.85l.4-8.74c-18.97-2.38-38.27-3.74-57.37-4.05-2.82-.05-5.68-.07-8.51-.07-12.3,0-24.77.44-37.05,1.3-13.28,5.43-26.77,10.83-40.11,16.04-20.6,8.05-41.59,15.96-62.36,23.5-.11.04-.23.06-.34.06Z"/>
    <path d="M335.54,83.12c7.74,0,15.85.26,24.29.86,19.48,1.39,36.83,4.3,51.66,7.68,1.13,1.44,2.33,3.19,3.44,5.27,1.94,3.63,2.96,7.03,3.51,9.66-2.31,1.58-5.02,3.24-8.12,4.83-3.31,1.69-6.43,2.98-9.22,3.95.15-3.22.29-6.44.44-9.66-17.61-2.24-37.17-3.83-58.39-4.17-2.87-.05-5.71-.07-8.52-.07-13.16,0-25.61.49-37.28,1.31-13.21,5.41-26.62,10.77-40.24,16.1-21.07,8.23-41.86,16.06-62.34,23.49v-11.85c13.67-7.16,28.16-14.3,43.46-21.29,19.69-9,38.71-16.85,56.85-23.71,11.91-1.42,25.5-2.4,40.47-2.4M335.54,81.12c-13.54,0-27.24.81-40.71,2.41-.16.02-.32.06-.47.12-19.17,7.24-38.34,15.24-56.98,23.76-14.64,6.7-29.29,13.87-43.56,21.34-.66.35-1.07,1.03-1.07,1.77v11.85c0,.65.32,1.26.85,1.64.34.24.74.36,1.15.36.23,0,.46-.04.68-.12,20.79-7.55,41.78-15.45,62.39-23.51,13.3-5.2,26.75-10.58,39.98-15.99,12.21-.85,24.59-1.29,36.82-1.29,2.82,0,5.67.02,8.49.07,18.75.3,37.7,1.62,56.34,3.93l-.18,3.95-.18,3.86c-.03.66.27,1.3.8,1.7.35.26.77.4,1.19.4.22,0,.45-.04.66-.11,3.23-1.13,6.42-2.5,9.47-4.06,2.87-1.47,5.68-3.14,8.34-4.96.67-.46.99-1.27.83-2.06-.75-3.57-2-7-3.71-10.19-1.04-1.95-2.26-3.82-3.63-5.56-.28-.36-.68-.61-1.13-.72-17.05-3.89-34.54-6.49-51.96-7.73-8.09-.58-16.31-.87-24.43-.87h0Z"/>
  </g>
  <path class="cls-31" d="M455.97,447.71c9.89-1.51,19.99-8.33,33.8-30.29,15.07-23.96,21.73-45.5,24.15-54,5.03-17.65,7.13-32.83,8.1-43.51-7.52-2.08-19.05-4.75-33.29-5.93-38.56-3.2-68.31,6.92-79.59,10.66-49.39,16.36-101.33,24.23-150.73,40.54-51.87,17.12-132.45,25.66-256.28-15.7-.27,4.83-.38,14.08,2.52,24.92,0,0,7.75,28.91,40.83,53.12,58.27,42.65,380.05,20.5,405.86,20.53.63,0,2.36.02,4.63-.33Z"/>
  <path class="cls-4" d="M105.04,267.38c22.95.24,58.55-.88,101.27-8.78,41.56-7.69,59.26-15.96,95.3-23.41,29.46-6.09,72.21-11.8,126.7-8.25l1.39,42.37c-52.41,16.26-94.42,30.97-123.11,41.4-52.09,18.94-74.61,29.17-111.84,34.54-39.79,5.74-73.37,2.68-95.5-.8,1.93-25.68,3.86-51.37,5.79-77.05Z"/>
  <path class="cls-25" d="M369.54,291.45c-2.13-6.95-55.36,2.21-95.56,12.21-47.85,11.91-56.33,19.82-92.78,26.85-33.85,6.53-62.37,6.61-80.93,5.71-1.07,7.27-2.13,14.55-3.2,21.82,32.88,2.45,61.89,1.45,85.88-.81,36.61-3.44,60.58-8.1,103.17-21.02,39.56-12,63.76-27.68,76.47-37.32,3.83-2.9,7.55-5.49,6.95-7.45Z"/>
  <path class="cls-32" d="M104.32,276.37c18.69.47,47.23-.02,81.43-5.76,23.22-3.9,25.69-6.3,65.79-15.69,42.26-9.9,73.03-16.98,111.22-19.86,26.16-1.97,48.62-1.44,65.81-.3.38-2.98.76-5.97,1.13-8.95-16.58-.67-43.04-1.13-75.44,1.2-50.23,3.61-79.67,11.4-142.56,22.28-24.23,4.19-60.47,10.06-105.41,15.74-.66,3.78-1.32,7.56-1.97,11.35Z"/>
  <g>
    <path class="cls-30" d="M265.89,238.83c6.2-3.23,10.81-12.7,11.3-23.31.13-2.7.35-3.36.61-13.36.3-11.77.69-21.29.37-35.39-.19-8.28-.49-12.39-2.83-15.62-2.29-3.16-5.31-3.77-7.32-4.18-5.62-1.14-12.14,1.33-15.9,7.08-.95,1.45-1.79,3.25-1.79,3.25-1.52,3.27-2.18,6.33-2.5,8.36-1.02,7.79-1.93,16.01-2.65,24.64-1.1,13-1.65,25.22-1.83,36.5.71,3.27,1.81,5.56,2.67,7.02,3.32,5.61,9.16,9.05,14.9,7.58,2.27-.58,3.81-1.98,4.96-2.58Z"/>
    <path class="cls-18" d="M272.9,228.82c.66-10.01,1.1-18.4,1.39-24.6.43-8.98.68-14.45.8-21.7.16-9.56,0-17.44-.17-22.91-.19-1.39-.61-3.47-1.68-5.21-2.65-4.29-7.2-3.14-10.75-2.24-3.2.81-6.54,1.65-9.08,6.06-1.32,2.29-1.96,4.73-2.29,6.4-.81,9.73-1.57,19.65-2.25,29.77-1.05,15.58-1.88,30.72-2.5,45.41,8.84-3.66,17.69-7.31,26.53-10.97Z"/>
  </g>
  <path class="cls-30" d="M272.91,341.02c7.5-2.76,12.87-11.25,13.17-20.89.08-2.46.34-3.05.36-12.14.03-10.7.24-19.36-.56-32.19-.47-7.54-.96-11.29-3.92-14.3-2.9-2.94-6.61-3.59-9.08-4.01-6.91-1.2-14.83.86-19.27,5.99-1.12,1.29-2.09,2.91-2.09,2.91-1.76,2.93-2.49,5.7-2.82,7.53-1.03,7.06-1.9,14.51-2.54,22.34-.97,11.8-1.29,22.9-1.19,33.17.96,3,2.37,5.11,3.48,6.47,4.23,5.2,11.48,8.5,18.47,7.32,2.77-.46,4.61-1.69,5.99-2.2Z"/>
  <path class="cls-18" d="M282.03,323.13c.4-7.87.61-14.46.72-19.33.16-7.06.26-11.36.12-17.07-.19-7.53-.69-13.74-1.12-18.07-.28-1.1-.88-2.76-2.27-4.17-3.42-3.49-8.93-2.76-13.25-2.19-3.88.51-7.93,1.04-10.87,4.41-1.53,1.75-2.21,3.65-2.54,4.95-.61,7.63-1.14,15.43-1.57,23.37-.67,12.24-1.07,24.14-1.25,35.69,10.68-2.53,21.35-5.06,32.03-7.59Z"/>
  <path class="cls-6" d="M399.7,212.62c11.61.83,23.22,1.66,34.83,2.49-.68-10.59-1.37-21.17-2.05-31.76-4.25-1.54-9.14-3.04-14.63-4.24-6.73-1.48-12.86-2.19-18.15-2.49-31.87-1.81-74.25,7.57-74.25,7.57-21.89,4.92-49.25,11.88-80.6,21.82-2.2,44.78-4.39,89.56-6.59,134.34"/>
  <path class="cls-8" d="M93.57,268.12c43.08-.55,77.16-5.04,99.22-8.71,73.62-12.26,111.18-31.8,185.49-34.02,20.9-.63,37.83.32,47.97,1.09.88,2.39,1.77,4.78,2.65,7.17,1.33-.4,3.04-1.05,4.87-2.16,2.15-1.3,3.69-2.76,4.72-3.9.36-1.36.7-3.2.71-5.38.02-2.29-.33-4.21-.7-5.62-16.36-1.87-43.86-4.14-77.78-2.29-62.76,3.43-94.18,18.06-168.37,30.61-22.03,3.73-56.21,8.69-99.22,11.34-.51.99-1.55,3.34-1.32,6.44.19,2.58,1.18,4.47,1.76,5.41Z"/>
  <path class="cls-23" d="M301.62,231.86c-.67,28.36-1.34,56.71-2.01,85.07"/>
  <path class="cls-19" d="M209.37,353.88c2.7-47.88,5.39-95.76,8.09-143.65-3.81-.12-9.33-.22-15.97,0-19.75.64-32.67,3.47-52.9,7.27-37.65,7.08-49.5,7.96-49.4,9.63.08,1.32,7.57,2.75,42.81,2.89"/>
  <g>
    <path class="cls-33" d="M149.09,382.52c-25.62,0-51.32-2.2-76.37-6.53-5.83-1.01-11.7-2.14-17.45-3.37-12.08-2.58-19.94-4.35-28.85-7.95-8.72-3.53-17.1-8.37-24.89-14.4-.35-.27-.48-.74-.32-1.15l8.75-22.86s.03-.08.05-.11c1.48-2.78,3.43-5.09,5.8-6.88,2.39-1.8,4.63-2.64,6.11-3.12,19.53-6.29,40.79-6.96,41-6.96,12.89-.36,25.8-.56,38.37-.59h0c.27,0,.53.11.72.31.19.2.29.47.27.74l-.26,5.21c-.03.53-.46.94-.99.95-62.56.73-72.52,6.08-72.88,9.21-.1.87.59,2.78,6.32,5.88,10.26,3.4,20.84,6.24,31.45,8.46l.82.17c7.88,1.65,18.68,3.91,33.77,4.87,18.71,1.2,34.86,2.23,50.73,2.23,8.91,0,17.21-.33,25.39-1,26.42-2.18,51.09-10.11,100.23-25.93l4.32-1.39c17.39-5.59,30.88-10.46,45.18-15.62,17.4-6.28,37.11-13.39,67.43-23.05,12.57-4.01,30.06-9.32,51.98-15.78,13.46-3.97,25.07-7.39,40.48-7.52h.93c9.38,0,18.82,1.2,28.05,3.56.33.09.6.33.7.66,3.02,9.33,5.1,19,6.19,28.73,1.19,10.7,1.19,21.56,0,32.27-.03.28-.18.54-.41.7-.17.12-.38.19-.58.19-.07,0-.14,0-.21-.02l-25.77-5.68c-19.71,1.22-39.57,3.58-59.02,7-20.94,3.69-41.87,8.7-62.22,14.9-45.04,17.49-91.8,29.84-138.91,36.69-25.02,3.64-52.26,7.19-85.91,7.19Z"/>
    <path d="M487.19,257.32c11.71,0,21.33,1.88,27.8,3.53,2.47,7.64,4.89,17.27,6.15,28.54,1.4,12.54.95,23.47,0,32.05-8.63-1.9-17.27-3.8-25.9-5.71-17.93,1.1-37.83,3.25-59.27,7.02-23.17,4.08-44.04,9.35-62.34,14.93-54.96,21.34-103.2,31.48-138.77,36.66-21.48,3.12-50.53,7.18-85.76,7.18-22.91,0-48.44-1.71-76.2-6.51-7.33-1.27-13.36-2.5-17.41-3.37-12.39-2.65-20.04-4.41-28.68-7.9-6.23-2.52-15.01-6.8-24.66-14.26,2.92-7.62,5.83-15.24,8.75-22.86.92-1.73,2.6-4.36,5.52-6.55,2.31-1.74,4.52-2.54,5.82-2.96,19.62-6.32,40.72-6.91,40.72-6.91,15.73-.44,28.78-.57,38.34-.59-.09,1.74-.17,3.47-.26,5.21-48.52.57-73.14,3.93-73.86,10.09-.23,2.01,2.07,4.31,6.91,6.91,7.99,2.65,18.74,5.82,31.65,8.52,8.2,1.71,19.05,4.06,34.73,5.06,18.75,1.2,34.89,2.23,50.79,2.23,8.44,0,16.82-.29,25.48-1,27.31-2.25,53.44-10.85,104.78-27.37,38.86-12.5,57.73-21.18,112.6-38.67,6.48-2.07,21.58-6.81,51.96-15.77,14.31-4.22,25.31-7.36,40.21-7.48.31,0,.62,0,.92,0M101.28,309.59h0M487.19,255.32c-.31,0-.63,0-.94,0-15.55.13-27.23,3.58-40.76,7.56-21.93,6.46-39.43,11.78-52,15.78-30.34,9.67-50.06,16.78-67.47,23.06-14.28,5.15-27.77,10.02-45.14,15.61l-4.33,1.39c-49.07,15.79-73.7,23.72-100,25.88-8.15.67-16.43,1-25.31,1-15.83,0-31.97-1.03-50.66-2.23-15.01-.96-25.77-3.21-33.62-4.85l-.83-.17c-10.55-2.2-21.06-5.03-31.26-8.4-5.85-3.17-5.73-4.77-5.72-4.84.01-.13.55-3.11,17.29-5.39,12.17-1.66,30.54-2.65,54.61-2.93,1.06-.01,1.92-.84,1.97-1.9l.25-5.11c0-.07.01-.13.01-.2,0-1.1-.89-2-2-2h0c-12.57.03-25.49.23-38.39.6h0c-1.23.04-21.98.8-41.28,7.01-1.55.5-3.9,1.38-6.41,3.27-2.49,1.87-4.54,4.3-6.08,7.21-.04.07-.07.15-.1.22L.26,348.76c-.32.82-.05,1.76.64,2.3,7.87,6.08,16.32,10.97,25.13,14.53,8.98,3.63,16.88,5.41,29.01,8,5.76,1.23,11.65,2.37,17.49,3.38,25.11,4.34,50.86,6.54,76.54,6.54,33.72,0,61-3.56,86.05-7.2,47.17-6.86,93.98-19.22,139.13-36.74,20.29-6.17,41.16-11.17,62.03-14.85,19.36-3.41,39.13-5.76,58.77-6.98l25.63,5.65c.14.03.29.05.43.05.41,0,.82-.13,1.16-.37.46-.33.76-.84.82-1.4,1.2-10.79,1.2-21.72,0-32.49-1.09-9.8-3.19-19.54-6.23-28.93-.21-.65-.74-1.15-1.41-1.32-9.31-2.39-18.83-3.6-28.29-3.6h0Z"/>
  </g>
  <path class="cls-20" d="M430.47,184.19c-8.42,3.11-17.23,5.99-26.45,8.56-1.21.34-2.42.67-3.62.99,10.02-3.18,20.05-6.37,30.07-9.55Z"/>
  <path class="cls-12" d="M401.17,206.65c24.24-3.63,31.12-5.77,31.02-7.1-.17-2.33-22.01-3.75-29.62-4.11,0,0-.78-.04-1.4-.06-32.65-1.32-72.2,5.61-72.2,5.61-28.32,7.46-56.64,14.92-84.96,22.38"/>
  <path class="cls-12" d="M416.68,212.6c-.12-7.74-.24-15.48-.37-23.21"/>
  <path class="cls-19" d="M404.57,212.6c-.17-11.69-.34-23.38-.51-35.07"/>
  <path class="cls-21" d="M193.91,245.36v-33.59"/>
  <path class="cls-16" d="M167.79,248.76c-.33-11.27-.66-22.53-.99-33.8"/>
  <path class="cls-16" d="M141.23,253.04c-.15-11.5-.29-23-.44-34.5"/>
  <path class="cls-22" d="M98.82,254.92c-.2-3.83-.31-7.85-.29-12.06.02-5.68.27-11.04.66-16.03"/>
  <path class="cls-1" d="M199.16,227.47c-14.41,3.04-29.68,5.83-45.77,8.23-19.02,2.84-37.14,4.82-54.2,6.15"/>
  <path class="cls-2" d="M117.45,249.29c-.27-8.64-.55-17.28-.82-25.92"/>
  <path class="cls-2" d="M131.31,248.54c-.58-9.47-1.16-18.94-1.74-28.41"/>
  <path class="cls-8" d="M292.03,106.28c-1.02,39.84-2.05,79.68-3.07,119.53"/>
  <path class="cls-7" d="M299.61,165.42v-37.76c9.22-.54,18.44-1.07,27.66-1.61v37.17c-9.22.73-18.44,1.46-27.66,2.2Z"/>
  <path class="cls-17" d="M299.61,165.42v-32.66c7.98-.46,15.95-.93,23.93-1.39v32.16c-7.98.63-15.95,1.27-23.93,1.9Z"/>
  <path class="cls-29" d="M306.78,150.57c3.07-3.95,6.15-7.9,9.22-11.85"/>
  <path class="cls-29" d="M309.26,153.06c1.54-1.66,3.07-3.32,4.61-4.98"/>
  <path class="cls-7" d="M337.71,161.8c.19-12.15.38-24.29.57-36.44,8.64-.38,17.28-.77,25.93-1.15-.19,11.96-.37,23.91-.56,35.87-8.65.57-17.29,1.14-25.94,1.71Z"/>
  <path class="cls-17" d="M337.72,161.63c.15-9.79.31-19.57.46-29.36,7.48-.3,14.95-.6,22.43-.9l-.45,28.9c-7.48.45-14.96.9-22.43,1.36Z"/>
  <path class="cls-27" d="M344.63,149.1c2.94-3.66,5.87-7.31,8.81-10.97"/>
  <path class="cls-28" d="M346.92,151.47c1.46-1.53,2.93-3.06,4.39-4.59"/>
  <path class="cls-7" d="M372.07,159.24c.18-11.68.36-23.36.55-35.05,7.3-.38,14.6-.77,21.89-1.15-.18,11.5-.36,23-.54,34.5-7.3.57-14.6,1.13-21.9,1.7Z"/>
  <path class="cls-17" d="M372.07,159.09c.15-9.82.31-19.64.46-29.46,6.31-.32,12.63-.64,18.94-.96-.15,9.67-.3,19.33-.45,29-6.32.47-12.63.95-18.95,1.42Z"/>
  <path class="cls-27" d="M377.94,146.45c2.49-3.66,4.98-7.32,7.46-10.99"/>
  <path class="cls-15" d="M400.16,106.61c6.09.35,12.18.7,18.27,1.04-5.48,2.71-10.95,5.41-16.43,8.12l-1.85-9.16Z"/>
  <ellipse class="cls-7" cx="229.38" cy="162.45" rx="11.93" ry="14.37"/>
  <ellipse class="cls-17" cx="230.79" cy="162.45" rx="9.86" ry="11.88"/>
  <ellipse class="cls-7" cx="137.32" cy="305.05" rx="11.93" ry="14.37"/>
  <ellipse class="cls-17" cx="138.73" cy="305.05" rx="9.86" ry="11.88"/>
  <ellipse class="cls-7" cx="184.34" cy="299.97" rx="11.93" ry="14.37"/>
  <ellipse class="cls-17" cx="185.74" cy="299.97" rx="9.86" ry="11.88"/>
  <ellipse class="cls-7" cx="344.63" cy="268.12" rx="11.93" ry="14.37"/>
  <ellipse class="cls-17" cx="343.05" cy="268.66" rx="9.51" ry="11.46"/>
  <ellipse class="cls-7" cx="397.85" cy="256.24" rx="11.93" ry="14.37"/>
  <ellipse class="cls-17" cx="396.34" cy="256.79" rx="9.13" ry="11"/>
  <path class="cls-23" d="M360.72,214.31c-.34-4.52-.65-10.49-.65-17.52,0-7.02.29-12.99.61-17.52"/>
  <path class="cls-23" d="M327.59,218.51c-.34-4.52-.65-10.49-.65-17.52,0-7.02.29-12.99.61-17.52"/>
  <path class="cls-23" d="M268.01,236.03c-.34-4.72-.65-10.96-.65-18.3,0-7.34.29-13.57.61-18.3"/>
  <path class="cls-23" d="M211.7,310.04c9.44-2.57,18.88-5.14,28.32-7.71"/>
  <path class="cls-23" d="M211.7,321.61c9.44-2.57,18.88-5.14,28.32-7.71"/>
  <path class="cls-23" d="M211.7,331.63c9.44-2.57,18.88-5.14,28.32-7.71"/>
  <path class="cls-23" d="M211.7,299.01c9.44-2.57,18.88-5.14,28.32-7.71"/>
  <path class="cls-23" d="M211.7,287.83c9.44-2.57,18.88-5.14,28.32-7.71"/>
  <path class="cls-23" d="M213.33,276.37c9.44-2.57,18.88-5.14,28.32-7.71"/>
  <path class="cls-23" d="M213.33,265.03c9.44-2.57,18.88-5.14,28.32-7.71"/>
  <ellipse class="cls-11" cx="263.47" cy="169.28" rx="6.27" ry="7.55"/>
  <ellipse class="cls-9" cx="264.21" cy="169.28" rx="5.18" ry="6.24"/>
  <ellipse class="cls-11" cx="266.47" cy="282.48" rx="8.06" ry="9.71"/>
  <ellipse class="cls-9" cx="267.42" cy="282.48" rx="6.67" ry="8.03"/>
  <path d="M452.2,447.31c21.94-27.53,36.93-60.74,42.04-95.63,3.97-27.18,2.07-55.17-5.52-81.59,7.3,24.48,9.76,50.43,7.09,75.85-3.85,37.3-19,73.09-42.03,102.61,0,0-1.57-1.24-1.57-1.24h0Z"/>
  <path class="cls-24" d="M48.9,351.81l-5.57,4.73"/>
  <path class="cls-24" d="M18.89,347.3l4.73,5.57"/>
  <path class="cls-24" d="M123.38,359.94l-5.57,4.73"/>
  <path class="cls-24" d="M93.37,355.42l4.73,5.57"/>
  <path class="cls-24" d="M207.8,355.34l-3.74,6.28"/>
  <path class="cls-24" d="M177.94,360.8l6.28,3.74"/>
  <path class="cls-24" d="M289.45,335.75l-3.74,6.28"/>
  <path class="cls-24" d="M259.6,341.21l6.28,3.74"/>
  <path class="cls-24" d="M458.58,277.22c-1.82,7.64-3.64,15.27-5.46,22.91"/>
  <path class="cls-24" d="M423.85,295.52c2.11,4.72,4.23,9.43,6.34,14.15"/>
  <path class="cls-24" d="M516.25,275.24c-.04,7.93-.09,15.86-.13,23.79"/>
  <path class="cls-24" d="M497.22,278.92c2.13,7.72,4.26,15.45,6.39,23.17"/>
  <g>
    <ellipse class="cls-3" cx="281.42" cy="369.65" rx="27.32" ry="28.43"/>
    <ellipse class="cls-5" cx="277.67" cy="369.65" rx="9.88" ry="11.69"/>
    <path class="cls-10" d="M277.5,381.34c-.52-.46-5.52-5.07-4.82-12.24.67-6.79,5.91-10.31,6.58-10.74-1.64-.28-4.61-.52-7.21,1.1-5.69,3.55-6.63,14.2-1.6,19.06,2.38,2.3,5.51,2.73,7.05,2.82Z"/>
    <path d="M302.82,367.63c.55-8.71-4.38-16.84-11.28-21.88-2.29-1.74-4.78-3.23-7.43-4.39,10.67,4.26,20.14,14.23,19.7,26.31-.02.66-1.03.63-1-.04h0Z"/>
    <path d="M303.82,367.63c.44,12.08-9.03,22.05-19.7,26.31,10.33-4.48,19.46-14.43,18.7-26.27-.03-.65.98-.7,1-.04h0Z"/>
  </g>
  <g>
    <ellipse class="cls-3" cx="198.71" cy="388.47" rx="27.32" ry="28.43"/>
    <ellipse class="cls-5" cx="194.96" cy="388.47" rx="9.88" ry="11.69"/>
    <path class="cls-10" d="M194.78,400.16c-.52-.46-5.52-5.07-4.82-12.24.67-6.79,5.91-10.31,6.58-10.74-1.64-.28-4.61-.52-7.21,1.1-5.69,3.55-6.63,14.2-1.6,19.06,2.38,2.3,5.51,2.73,7.05,2.82Z"/>
    <path d="M220.11,386.46c.55-8.71-4.38-16.84-11.28-21.88-2.29-1.74-4.78-3.23-7.43-4.39,10.67,4.26,20.14,14.23,19.7,26.31-.02.66-1.03.63-1-.04h0Z"/>
    <path d="M221.11,386.46c.44,12.08-9.03,22.05-19.7,26.31,10.33-4.48,19.46-14.43,18.7-26.27-.03-.65.98-.7,1-.04h0Z"/>
  </g>
  <g>
    <ellipse class="cls-3" cx="104.32" cy="388.57" rx="27.32" ry="28.43"/>
    <ellipse class="cls-5" cx="100.57" cy="388.57" rx="9.88" ry="11.69"/>
    <path class="cls-10" d="M100.39,400.26c-.52-.46-5.52-5.07-4.82-12.24.67-6.79,5.91-10.31,6.58-10.74-1.64-.28-4.61-.52-7.21,1.1-5.69,3.55-6.63,14.2-1.6,19.06,2.38,2.3,5.51,2.73,7.05,2.82Z"/>
    <path d="M125.72,386.56c.55-8.71-4.38-16.84-11.28-21.88-2.29-1.74-4.78-3.23-7.43-4.39,10.67,4.26,20.14,14.23,19.7,26.31-.02.66-1.03.63-1-.04h0Z"/>
    <path d="M126.72,386.56c.44,12.08-9.03,22.05-19.7,26.31,10.33-4.48,19.46-14.43,18.7-26.27-.03-.65.98-.7,1-.04h0Z"/>
  </g>
  <g>
    <ellipse class="cls-3" cx="29.99" cy="373.33" rx="22.09" ry="22.98"/>
    <ellipse class="cls-5" cx="26.96" cy="373.33" rx="7.99" ry="9.45"/>
    <path class="cls-10" d="M26.81,382.78c-.42-.37-4.47-4.1-3.9-9.89.54-5.49,4.78-8.33,5.32-8.68-1.32-.23-3.73-.42-5.83.89-4.6,2.87-5.36,11.48-1.29,15.4,1.93,1.86,4.45,2.21,5.7,2.28Z"/>
    <path d="M47.19,371.7c.47-7.02-3.49-13.58-9.03-17.67-1.85-1.41-3.85-2.63-5.99-3.57,8.66,3.42,16.35,11.48,16.02,21.27-.02.66-1.03.63-1-.04h0Z"/>
    <path d="M48.19,371.7c.33,9.79-7.36,17.85-16.02,21.27,8.32-3.65,15.67-11.69,15.02-21.23-.04-.66.98-.71,1-.04h0Z"/>
  </g>
  <g>
    <ellipse class="cls-3" cx="454.27" cy="331.63" rx="35.51" ry="36.95"/>
    <ellipse class="cls-5" cx="454.8" cy="332.48" rx="16.56" ry="20.57" transform="translate(-98.67 227.33) rotate(-25.41)"/>
    <path class="cls-10" d="M463.36,351.18c-1.13-.36-12.19-4.08-16.54-15.98-4.12-11.27,1.17-20.64,1.85-21.8-2.69.73-7.38,2.49-10.09,6.93-5.94,9.74.68,27.33,11.96,31.44,5.35,1.95,10.4.37,12.81-.59Z"/>
  </g>
  <g>
    <ellipse class="cls-3" cx="523.45" cy="322.17" rx="33.67" ry="35.03"/>
    <ellipse class="cls-5" cx="527.99" cy="323.01" rx="15.7" ry="19.5"/>
    <path class="cls-10" d="M528.27,303.51c.82.77,8.78,8.45,7.66,20.42-1.06,11.33-9.4,17.2-10.45,17.91,2.6.47,7.33.87,11.46-1.83,9.05-5.92,10.54-23.68,2.54-31.79-3.79-3.84-8.76-4.55-11.21-4.71Z"/>
  </g>
</svg>